{"title":"Hyde &amp; Seek - S01E02","uid":16004966,"size":329414770,"categoryP":"video","categoryS":"tv_shows","magnet":"?xt=urn:btih:8f669f3c197b601a28ca5df938fce5193d926dc9&amp;dn=Hyde+%26amp%3B+Seek+-+S01E02&amp;tr=udp%3A%2F%2Ftracker.leechers-paradise.org%3A6969&amp;tr=udp%3A%2F%2Fzer0day.ch%3A1337&amp;tr=udp%3A%2F%2Fopen.demonii.com%3A1337&amp;tr=udp%3A%2F%2Ftracker.coppersurfer.tk%3A6969&amp;tr=udp%3A%2F%2Fexodus.desync.com%3A6969","seeders":9,"leechers":2,"uploader":"Bullrout","files":1,"time":1476167120,"description":"Hyde &amp; Seek - S01E02\r\n\r\nGary and Claire travel to Hong Kong in the hunt for Nick's killer, and uncover a terrorist network operating inside Australia.\r\n\r\nComplete name : Hyde &amp; Seek - S01E02.mp4\r\nFormat : MPEG-4\r\nFormat profile : Base Media / Version 2\r\nCodec ID : mp42 (mp42/isom/avc1)\r\nFile size : 314 MiB\r\nDuration : 39 min 47 s\r\nOverall bit rate mode : Variable\r\nOverall bit rate : 1 104 kb/s\r\n\r\nVideo\r\nID : 2\r\nFormat : AVC\r\nFormat/Info : Advanced Video Codec\r\nFormat profile :   \r\nFormat settings, CABAC : Yes\r\nFormat settings, ReFrames : 3 frames\r\nCodec ID : avc1\r\nCodec ID/Info : Advanced Video Coding\r\nDuration : 39 min 47 s\r\nBit rate mode : Variable\r\nBit rate : 972 kb/s\r\nMaximum bit rate : 1 000 kb/s\r\nWidth : 720 pixels\r\nHeight : 404 pixels\r\nDisplay aspect ratio : 16:9\r\nOriginal display aspect ratio : 16:9\r\nFrame rate mode : Constant\r\nFrame rate : 25.000 FPS\r\nStandard : PAL\r\nColor space : YUV\r\nChroma subsampling : 4:2:0\r\nBit depth : 8 bits\r\nScan type : Progressive\r\nBits/(Pixel*Frame) : 0.134\r\nStream size : 277 MiB (88%)\r\nWriting library : x264 core 112\r\nColor range : Limited\r\nColor primaries : BT.601 PAL\r\nTransfer characteristics : BT.470 System B, BT.470 System G\r\nMatrix coefficients : BT.601\r\n\r\nAudio\r\nID : 1\r\nFormat : AAC\r\nFormat/Info : Advanced Audio Codec\r\nFormat profile : LC\r\nCodec ID : 40\r\nDuration : 39 min 47 s\r\nBit rate mode : Variable\r\nBit rate : 128 kb/s\r\nMaximum bit rate : 576 kb/s\r\nChannel(s) : 2 channels\r\nChannel positions : Front: L R\r\nSampling rate : 48.0 kHz\r\nFrame rate : 46.875 FPS (1024 spf)\r\nCompression mode : Lossy\r\nStream size : 36.4 MiB (12%)","torrent":{"xt":"urn:btih:8f669f3c197b601a28ca5df938fce5193d926dc9","amp;dn":"Hyde+%26amp%3B+Seek+-+S01E02","amp;tr":["udp%3A%2F%2Ftracker.leechers-paradise.org%3A6969","udp%3A%2F%2Fzer0day.ch%3A1337","udp%3A%2F%2Fopen.demonii.com%3A1337","udp%3A%2F%2Ftracker.coppersurfer.tk%3A6969","udp%3A%2F%2Fexodus.desync.com%3A6969"],"infoHash":"8f669f3c197b601a28ca5df938fce5193d926dc9","infoHashBuffer":{"type":"Buffer","data":[143,102,159,60,25,123,96,26,40,202,93,249,56,252,229,25,61,146,109,201]},"announce":[],"urlList":[]}}